<?xml version="1.0" encoding="UTF-8"?>
<svg viewBox="0 0 190 156" xmlns="http://www.w3.org/2000/svg">
 <path d="m0 0v156h190v-156h-190z" fill="#fff"/>
 <path d="m54.667 7.3333l0.6666 0.33334-0.6666-0.33334z" fill="#a4a3a0"/>
 <path d="m44 59l-3-10 8 3c-0.3398-5.0415 0.4839-15.7 5.1481-18.698 6.7445-4.3344 19.963-3.63 22.294-13.306 2.5326-10.512-13.135-14.014-20.442-12.478-9.6359 2.0248-19.711 6.4916-24.722 15.482-6.6705 11.969-0.4477 31.792 12.722 36z" fill="#773d07"/>
 <path d="m64 7v1h3l-3-1m-12.333 1.3333l0.6666 0.33334-0.6666-0.33334m-3 1l0.6666 0.33334-0.6666-0.33334z" fill="#806f57"/>
 <path d="m163 12v1h4l-4-1z" fill="#7d7f7d"/>
 <path d="m40 13l1 1-1-1z" fill="#989791"/>
 <path d="m158.67 13.333l0.666 0.3334-0.666-0.3334z" fill="#bdbdb9"/>
 <path d="m151 30c4.575-2.1349 12.281-5.4407 17-3 8.696-16.386-17.826-17.433-20.548-7.8704-1.069 3.758 1.819 7.7623 3.548 10.87z" fill="#3f4f4e"/>
 <path d="m155.67 14.333l0.666 0.3334-0.666-0.3334z" fill="#7d7f7d"/>
 <path d="m150.67 15.333l0.666 0.3334-0.666-0.3334m-114.67 0.6667l1 1-1-1z" fill="#a4a3a0"/>
 <path d="m121 20c-8.547-5.3702-21.298-4-31-4-3.2149 0-8.6924-1.0093-11.436 1.0278-4.8816 3.6245 0.0339 17.538 5.544 18.071 13.553 1.3119 24.179-13.386 36.892-15.099z" fill="#e9ebe3"/>
 <path d="m35 17l1 1-1-1m112 0l1 1-1-1z" fill="#989791"/>
 <path d="m34 18l1 1-1-1z" fill="#a4a3a0"/>
 <path d="m144.67 18.333l0.666 0.3334-0.666-0.3334z" fill="#989791"/>
 <path d="m146 18c-7.483 2.3671-22.784 8.6002-30 5l-13 5 1 3 14-3 1 6 29-6-2-10z" fill="#617774"/>
 <path d="m108 26l16-3-1-4c-4.898 1.0239-13.189 1.8461-15 7z" fill="#363f3b"/>
 <path d="m123.33 19.667l0.334 0.6666-0.334-0.6666z" fill="#5d6968"/>
 <path d="m113.67 21.333l0.666 0.3334-0.666-0.3334z" fill="#7d7f7d"/>
 <path d="m31 22l1 1-1-1z" fill="#989791"/>
 <path d="m75.333 22.667l0.3334 0.6666-0.3334-0.6666z" fill="#806f57"/>
 <path d="m127.67 22.333l0.666 0.3334-0.666-0.3334z" fill="#989791"/>
 <path d="m108 26v1l8-4-8 3z" fill="#a9b3b5"/>
 <path d="m117 24v1l8-1h-8z" fill="#bdbdb9"/>
 <path d="m169 23v4h-1c-3.297-3.4112-13.394 0.7908-17 3l-2-6h-1c0.74 13.397 23.691 5.9576 21-1z" fill="#2c3838"/>
 <path d="m170 23v4h1l-1-4z" fill="#c3cdcf"/>
 <path d="m52 35c6.7683-0.8598 15.966-1.8416 20-8l2 1 2-4-24 11z" fill="#feb164"/>
 <path d="m76 24l1 4h1l-2-4z" fill="#a8856a"/>
 <path d="m75 25l-1 3-2-1c-5.3925 5.45-12.758 6.6355-20 8l-4 13c4.5037-0.6065 10.694-1.2889 14.701-3.5131 5.1373-2.8512 4.4064-6.4153 11.299-4.4869-3.3202 10.086-15.123 7.0845-25 9v4l-8-4 3 11 6-2c3.8139 9.8097 12.966 9 22 9l-1-3c6.6684-0.5132 9.0793-5.8966 10-12l-6 1v-1l6-3-5-5 6 4c-0.742-4.522-3.7015-6.7601-8-8v-1c5.3492-3.6899 5.3371-9.511 1-14z" fill="#ffcb9a"/>
 <path d="m29.333 26.667l0.3334 0.6666-0.3334-0.6666z" fill="#806f57"/>
 <path d="m106.67 27.333l0.666 0.3334-0.666-0.3334z" fill="#a4a3a0"/>
 <path d="m78 28l-4 11v1l6 3c-1.7311-3.6274-2.0492-5.2274 1-8l-3-7z" fill="#9d8e7f"/>
 <path d="m105 30v1l2 1c-5.346 4.7692 3.901 8.0521 8 7.6505 10.584-1.0373 23.784-5.4052 34-8.6505v-2c-8.247-2.4141-22.169 1.6738-30 5l-1-6-13 2z" fill="#3f4f4e"/>
 <path d="m168.67 28.333l0.666 0.3334-0.666-0.3334z" fill="#989791"/>
 <path d="m28 29v8h1l-1-8z" fill="#9d8e7f"/>
 <path d="m98.667 29.333l0.6666 0.3334-0.6666-0.3334z" fill="#799293"/>
 <path d="m102 29c-8.7517 3.5181 2.47 13.521 0 0z" fill="#3f4f4e"/>
 <path d="m102 29c0.406 3.5257 1.355 7.3512-3 8 1.849 5.5543 8.216 3.0396 13 3v-1c-4.056-0.6334-7.738-2.8119-5-7v-1l-5-2z" fill="#2c3838"/>
 <path d="m164.67 29.333l0.666 0.3334-0.666-0.3334z" fill="#a9b3b5"/>
 <path d="m97 30l-7 3 1 6h1v-5h1v4h4v-8z" fill="#a8856a"/>
 <path d="m158.67 30.333l0.666 0.3334-0.666-0.3334z" fill="#617774"/>
 <path d="m147 31v1h4l-4-1m7.667 0.3333l0.666 0.3334-0.666-0.3334z" fill="#989791"/>
 <path d="m144.67 32.333l0.666 0.3334-0.666-0.3334z" fill="#a9b3b5"/>
 <path d="m118 39l-4.597 13.951 5.075 9.0679 16.522 57.982c35.152-2.53 55.551-49.868 32.561-75.961-3.646-4.1382-9.14-9.9238-14.561-11.525-9.476-2.7985-26.12 3.0658-35 6.4853z" fill="#e9ebe3"/>
 <path d="m51 34v8h1l-1-8z" fill="#835432"/>
 <path d="m79 42c5.4367-0.7789 9.4648-2.4361 11-8-5.5771 1.1511-10.495 1.5186-11 8z" fill="#617774"/>
 <path d="m92 34v5h-1v-4h-1l3 13c5.4444-3.6722 6.1046-7.7725 5-14h-1v4h-1l-1-2-2 2-1-4z" fill="#ffcb9a"/>
 <path d="m134.67 34.333l0.666 0.3334-0.666-0.3334z" fill="#9ba5aa"/>
 <path d="m78 41h1l4-5c-3.9742-1.2637-5.542 1.2916-5 5z" fill="#accdfc"/>
 <path d="m129.67 35.333l0.666 0.3334-0.666-0.3334z" fill="#a4a3a0"/>
 <path d="m32 111c0-16.563 2.655-30.74 9-46l8 6 6 1-9-10h-1l-2 2 2-4c-10.219-6.2844-12.871-13.233-17-24-30.268 13.603-25.487 63.579 4 75z" fill="#e9ebe3"/>
 <path d="m89 36v4h1l-1-4z" fill="#cdaa87"/>
 <path d="m74 40c-1.1736-0.4838-2.688-1.3742-4.0255-1.3873-10.981-0.1077-0.9437 15.649 2.7979 6.2638 0.5992-1.5031 0.835-3.3109 1.2276-4.8765z" fill="#7d7f7d"/>
 <path d="m118.67 38.333l0.666 0.3334-0.666-0.3334z" fill="#989791"/>
 <path d="m69 47l2-7c-4.8201-0.0777-5.9921 4.3998-2 7z" fill="#d0e3ea"/>
 <path d="m80 41l1 3 9-2-1-3-9 2z" fill="#3f4f4e"/>
 <path d="m117 39l-13 1v1l7 3h1c2.619-1.7103 4.464-0.4335 6 2h1l-2-7z" fill="#7d7f7d"/>
 <path d="m99 40c-2.0596 4.416-6.0713 7.8417-2 12 1.6755-4.3117 5.185-7.7523 2-12z" fill="#feb164"/>
 <path d="m70 41l-1 6 3-6h-2z" fill="#accdfc"/>
 <path d="m90 41v4l4 1-4-5z" fill="#c99561"/>
 <path d="m101 41v4h1l-1-4z" fill="#a8856a"/>
 <path d="m102 41l-1 12h1l9-12h-9z" fill="#e9ebe3"/>
 <path d="m83 43l-4 22-10 6 14-6c-5.6736 9.7265-16.745 11.99-26.999 8.3002-4.5777-1.6472-10.639-10.532-15.032-5.1119-9.5748 11.814-7.1327 33.737-6.9652 47.812 0.0488 4.108-0.4028 12.962 2.0239 16.351 3.2831 4.585 18.548 5.869 21.369 0.219 2.7474-5.502 0.6034-16.461 0.6034-22.57l-11 3v-1c9.1592-0.692 13.843-13.899 8.9722-21.61-2.2969-3.6361-7.2135-5.8375-9.9722-9.3897 23.307 9.5594 47.981-0.1847 52-27l-5-5-2 3h-1l1-5h-1l-4 9h-1l6-13h-8z" fill="#fff"/>
 <path d="m112 42c0.124 5.1063-0.531 7.5763-6 8v1l7 3 5-7v-4l-4 2-2-3z" fill="#51676d"/>
 <path d="m114 43v2h2v-2h-2z" fill="#c3cdcf"/>
 <path d="m76 44l5 5-6 3v1c7.8869-0.6017 6.5339-5.4196 1-9z" fill="#a8856a"/>
 <path d="m82 44l-5 22h1c2.2841-6.7451 6.9936-14.85 4-22z" fill="#9d8e7f"/>
 <path d="m101 51h-1l-2 4 1 8-4 4h4l-1-3 20 2h1l-2-3c0.15-9.2947-11.458 0.8719-13.654-6.2284-1.867-6.0354 9.576-5.7304 8.654-12.772l-11 7z" fill="#799293"/>
 <path d="m49 48v1l16-3-16 2z" fill="#a8856a"/>
 <path d="m89 48h4c-1.5802-2.1459-2.4623-2.1704-4 0z" fill="#9d8e7f"/>
 <path d="m99 46l-2 6-3-2 4 4 1-5 1 2h1l-2-5z" fill="#a8856a"/>
 <path d="m88 48l-1 5h1l2-5h-2z" fill="#bdbdb9"/>
 <path d="m91 48l-1 4h1l2-4h-2z" fill="#a9b3b5"/>
 <path d="m93.333 48.667l0.3334 0.6666-0.3334-0.6666z" fill="#a8856a"/>
 <path d="m99 49l-1 5 1-5z" fill="#e9ebe3"/>
 <path d="m114 54c-1.227-0.6742-2.671-1.6964-4.045-2.091-13.115-3.7682-2.339 17.668 4.045 2.091z" fill="#c3cdcf"/>
 <path d="m43 52l3 2-3-2z" fill="#b18456"/>
 <path d="m47.667 52.333l0.6666 0.3334-0.6666-0.3334z" fill="#c99561"/>
 <path d="m86 52l-1 4h1v-4m3.3333 0.6667l0.3334 0.6666-0.3334-0.6666z" fill="#989791"/>
 <path d="m105 58h5c-0.832-4.9916-4.168-4.9916-5 0z" fill="#5d6968"/>
 <path d="m70 54l1 3 8-1-9-2z" fill="#cdaa87"/>
 <path d="m88 54l-3 8h1l4-8h-2z" fill="#c3cdcf"/>
 <path d="m72 55v1l5 1v-2h-5z" fill="#bdbdb9"/>
 <path d="m98 55c-3.3477 9.8316-8.5263 24.084-18 29v-1l5-4-27 6v1l22-2v1c-9.8056 3.0101-6.9746 28.81-7 38h-1v-3h-1v10h1l1-3 11 3h1c1.274-15.598 7.0781-31.818 10.874-47 1.3073-5.2295 5.3215-13.239 0.1265-17l-2 5h-1c2.0305-4.7122 8.019-11.068 5-16z" fill="#e9ebe3"/>
 <path d="m106 55v2h3v-2h-3z" fill="#799293"/>
 <path d="m72 56l2 3-2-3z" fill="#835432"/>
 <path d="m77 56l-3 3c2.348-0.2942 3.951-0.4934 3-3z" fill="#e91b2d"/>
 <path d="m84 56l-1 3 1-3z" fill="#bdbdb9"/>
 <path d="m112 59l6 1c-1.74-2.8219-3.834-3.9429-6-1z" fill="#617774"/>
 <path d="m49 58l-6 6c5.1177-2.4301 7.251-0.1418 12 2l-6-8z" fill="#b18456"/>
 <path d="m74 59v1h3l-3-1z" fill="#a8856a"/>
 <path d="m82 59l-1 3 1-3z" fill="#a9b3b5"/>
 <path d="m118 60l-1 3 1-3z" fill="#5d6968"/>
 <path d="m46 61v1l6 3-6-4z" fill="#d0e3ea"/>
 <path d="m98.333 61.667l0.3334 0.6666-0.3334-0.6666z" fill="#3f4f4e"/>
 <path d="m46 62l4 3-4-3z" fill="#a9b3b5"/>
 <path d="m84 62l-1 3 1-3z" fill="#bdbdb9"/>
 <path d="m76 63l-5 1 1 3-12 1v1l2 6 2-6c3.7241-0.0126 9.4118 0.4451 10-4l3 1-1-3z" fill="#b18456"/>
 <path d="m98 64c3.809 6.6877 16.127 6.6355 20 0-7.285 2.3092-12.705 1.93-20 0z" fill="#bdbdb9"/>
 <path d="m100 64v1h16v-1h-16z" fill="#51676d"/>
 <path d="m41 65c-5.2867 9.0922-7.913 19.494-8 30h1l7-30z" fill="#a4a3a0"/>
 <path d="m50 65l5 7-5-2v1c3.2223 1.8413 10.842 6.3753 12 1h-1l-1 2h-1l-4-8-5-1z" fill="#9ba5aa"/>
 <path d="m74.667 65.333l0.6666 0.3334-0.6666-0.3334z" fill="#3f4f4e"/>
 <path d="m82 65l-2 4 2-4z" fill="#9ba5aa"/>
 <path d="m55 66v1l4 5h2l-6-6z" fill="#806f57"/>
 <path d="m57 66v1l12 1v-1l-12-1z" fill="#feb164"/>
 <path d="m117 66c-7.902 5.4482-1.173 15.481 1.333 23 6.824 20.472 15.801 40.966 20.667 62h5l-28-83 1-2z" fill="#3f4f4e"/>
 <path d="m54 67l6 4-6-4z" fill="#e9ebe3"/>
 <path d="m94 67l-1 4h1l2-4h-2z" fill="#9ba5aa"/>
 <path d="m99 67l-19 85c5.6887-3.645 5.625-14.863 7.294-21 5.5647-20.464 9.6299-41.396 14.706-62l-1-2h-2z" fill="#617774"/>
 <path d="m69 69h-1v4h-4v1c5.5481-0.2419 12.942-1.0471 17-5h-12z" fill="#d0e3ea"/>
 <path d="m100 68v1c3.353 5.0381-2.2005 17.495-3.706 23-5.4208 19.822-9.1313 40.096-14.294 60h4l19-82h1v29h1v-5h1l-1 54h4v-79l-11-1z" fill="#3f4f4e"/>
 <path d="m110 68l1 2h1l1-2h-3m6 0l15 47h1c1.536-10.973-5.878-24.634-9.333-35-1.543-4.6291-2.399-9.2552-6.667-12z" fill="#7d7f7d"/>
 <path d="m60 69l2 5h1l-3-5z" fill="#feb164"/>
 <path d="m64 69v1h3v1l-3 2h4v-4h-4z" fill="#9ba5aa"/>
 <path d="m64 70v1h3l-3-1z" fill="#fff"/>
 <path d="m105 70v13h1l-1-13z" fill="#bdbdb9"/>
 <path d="m111 70l1 57 16-3c1.293-12.306-6.46-26.379-10.333-38-1.799-5.397-3.056-11.526-6.667-16z" fill="#e9ebe3"/>
 <path d="m64 74v1l14-3-14 2z" fill="#9ba5aa"/>
 <path d="m59 72v2h2v-2h-2z" fill="#d0e3ea"/>
 <path d="m91 72l-1 3 1-3z" fill="#9ba5aa"/>
 <path d="m104 74l-12 53 14 1c0-15.85 4.207-39.242-2-54z" fill="#e9ebe3"/>
 <path d="m89 75l-9 8v1c4.0717-1.3843 9.1001-4.2704 9-9m14.333 1.6667l0.334 0.6666-0.334-0.6666z" fill="#a9b3b5"/>
 <path d="m102.33 80.667l0.334 0.6666-0.334-0.6666z" fill="#989791"/>
 <path d="m46 81c2.9989 4.3816 9.9437 5.5585 15 6v24h1v-24h11v4h1l6-6v-1c-13.526 1.8214-20.978 0.7226-34-3z" fill="#a9b3b5"/>
 <path d="m49 84c1.7529 3.092 5.2147 4.2163 6.9722 7.213 2.9143 4.9689 0.5899 12.781-0.9722 17.787l3-1v26c4.1448-2.989 3-8.313 3-13v-34l-12-3z" fill="#d0e3ea"/>
 <path d="m62 87v15h1v-14h1v14h1v-15h-3z" fill="#51676d"/>
 <path d="m72 107l1-20c-6.4594 2.5966-5.3235 15.766-1 20z" fill="#e9ebe3"/>
 <path d="m63 88v14h1l-1-14z" fill="#6b9fbd"/>
 <path d="m65 88v32l2 12-2-44z" fill="#c3cdcf"/>
 <path d="m66 88v43h2c0-7.995-1.5653-17.083 3-24v-1l-2-18h-3z" fill="#d0e3ea"/>
 <path d="m100.33 89.667l0.334 0.6666-0.334-0.6666z" fill="#a9b3b5"/>
 <path d="m73 91v9h1l-1-9z" fill="#989791"/>
 <path d="m99.333 93.667l0.3334 0.6666-0.3334-0.6666z" fill="#a4a3a0"/>
 <path d="m107 94v53h1v-36l-1-17z" fill="#2c3838"/>
 <path d="m33 95v33h2l-2-33z" fill="#bdbdb9"/>
 <path d="m72 96l-2 11v1l3 7h1l-2-19z" fill="#c3cdcf"/>
 <path d="m106 99v8h1l-1-8z" fill="#7d7f7d"/>
 <path d="m91.333 100.67l0.3334 0.666-0.3334-0.666z" fill="#9ba5aa"/>
 <path d="m62 102v31h1v-29h1v29h1v-31h-3z" fill="#363f3b"/>
 <path d="m97.333 102.67l0.3334 0.666-0.3334-0.666z" fill="#a9b3b5"/>
 <path d="m63 104v29l-7 1 1 4 10-3-4 10c-4.2605-1.514-7.477-2.303-10 2h-2l-1-4-9 7v-11h12v-3l-14-1 1 17c6.4477 4e-3 21.451 5.923 23-3 3.786 0.163 9.1382 2.046 12.682 0.257 3.7227-1.879 1.8183-7.628-1.7261-8.506-2.8044-0.695-5.6149 2.087-7.956 3.249l2-12-4 1-1-29z" fill="#38525a"/>
 <path d="m90.333 104.67l0.3334 0.666-0.3334-0.666z" fill="#9ba5aa"/>
 <path d="m111 104v18h1l-1-18z" fill="#989791"/>
 <path d="m96.333 106.67l0.3334 0.666-0.3334-0.666m9.6667 0.333v21h1l-1-21m-59 5v1c4.905-0.119 7.8993-1.088 11-5l-11 4z" fill="#a4a3a0"/>
 <path d="m69 108l-1 23 3-1-2 9 12 6 3-17-11-1-1 3h-1l1-22h-3z" fill="#fff"/>
 <path d="m61 111v22h1l-1-22z" fill="#799293"/>
 <path d="m132 112c0.194 9.369 5.07 32.461 13 38-1.615-10.937-6.373-29.141-13-38z" fill="#5d6968"/>
 <path d="m72 114v9h1l-1-9z" fill="#989791"/>
 <path d="m93.333 118.67l0.3334 0.666-0.3334-0.666z" fill="#7d7f7d"/>
 <path d="m128 120v4l-16 3v17l25 1c-1.113-7.538-3.93-19.248-9-25z" fill="#fff"/>
 <path d="m111 122v26h1l-1-26z" fill="#7d7f7d"/>
 <path d="m92.333 123.67l0.3334 0.666-0.3334-0.666z" fill="#a9b3b5"/>
 <path d="m85 125v3h1l-1-3z" fill="#a4a3a0"/>
 <path d="m92 127l-4 20h1v-3h17v-16l-14-1z" fill="#fff"/>
 <path d="m34 128v4h1l-1-4z" fill="#989791"/>
 <path d="m106 128v20h1l-1-20z" fill="#c3cdcf"/>
 <path d="m67 131v1l4-1h-4z" fill="#989791"/>
 <path d="m34 132l5 4-5-4z" fill="#bdbdb9"/>
 <path d="m68 132v7h1l-1-7z" fill="#c3cdcf"/>
 <path d="m52 135l1 7h1l2-6-4-1z" fill="#799293"/>
 <path d="m57 136h-1v7l7 2 4-10-10 1z" fill="#46768b"/>
 <path d="m39 136v10l-18 2c2.5344 7.661 22.061 5.999 29 6v-1c-13.296-0.12-7.3309-8.256-11-17z" fill="#e9ebe3"/>
 <path d="m54 136v6h2v-6h-2z" fill="#fff"/>
 <path d="m89.333 136.67l0.3334 0.666-0.3334-0.666z" fill="#c3cdcf"/>
 <path d="m82.333 138.67l0.3334 0.666-0.3334-0.666z" fill="#9ba5aa"/>
 <path d="m41 139v11c4.7887-1.372 10.39-6.224 12-11h-12z" fill="#46768b"/>
 <path d="m66 144l7-4c-3.6199-1.138-5.4156 0.855-7 4z" fill="#d0e3ea"/>
 <path d="m88.333 140.67l0.3334 0.666-0.3334-0.666z" fill="#bdbdb9"/>
 <path d="m50 145l4-3-4 3z" fill="#2c3838"/>
 <path d="m51 147l5-5-5 5z" fill="#d0e3ea"/>
 <path d="m81.333 142.67l0.3334 0.666-0.3334-0.666z" fill="#a4a3a0"/>
 <path d="m78 144l1 5h-15c-2.0617 3.929-4.6837 4.764-9 5v1c34.652 0 68.644 0.437 103-4-1.5-5.128-9.4-4.454-14-5-0.164 3.642-1.474 4.436-5 5l-1-6-26-1v4h-6v-4l-19 2c-1.9231 12.28-6.0256 0.048-9-2z" fill="#e9ebe3"/>
 <path d="m87.333 144.67l0.3334 0.666-0.3334-0.666z" fill="#989791"/>
 <path d="m78 145v4h1l-1-4z" fill="#bdbdb9"/>
 <path d="m86 148v3h1l-1-3z" fill="#7d7f7d"/>
 <path d="m63 149v3h1l-1-3m3 0v1h3l-3-1z" fill="#799293"/>
 <path d="m42 152v1h8l-8-1z" fill="#5d6968"/>
 <path d="m82 152v1h3l-3-1z" fill="#7d7f7d"/>
 <path d="m50 153v1h3l-3-1z" fill="#bdbdb9"/>
</svg>
